# Blender 4.2.3 LTS
# www.blender.org
mtllib LockerDoor.mtl
o LDoor
v 0.017333 1.665000 0.000111
v 0.017333 1.852500 -0.560074
v 0.017333 1.477500 0.000111
v 0.017333 1.852500 -0.111926
v 0.017333 2.040000 -0.111926
v 0.017333 1.477500 -0.560074
v 0.017333 2.040000 -0.560074
v 0.017333 1.477500 -0.672111
v 0.017333 1.665000 -0.672111
v -0.016000 2.040000 -0.111926
v -0.016000 2.040000 -0.560074
v 0.017333 1.477500 -0.111926
v -0.016000 1.852500 -0.111926
v -0.016000 1.852500 -0.560074
v -0.016000 1.290000 0.000111
v -0.016000 1.290000 -0.672111
v 0.017333 1.290000 -0.672111
v 0.017333 1.290000 0.000111
v 0.017333 1.665000 -0.560074
v 0.017333 1.665000 -0.111926
v 0.017333 1.852500 -0.672111
v -0.016000 1.477500 0.000111
v 0.017333 0.040000 -0.111926
v 0.017333 0.040000 -0.560074
v -0.016000 0.040000 -0.111926
v -0.016000 0.040000 -0.560074
v -0.016000 1.852500 -0.672111
v -0.016000 1.665000 -0.672111
v -0.016000 0.040000 0.000111
v -0.016000 1.290000 -0.111926
v -0.016000 1.665000 0.000111
v -0.016000 1.477500 -0.672111
v -0.016000 1.290000 -0.560074
v 0.017333 1.852500 0.000111
v 0.017333 1.290000 -0.560074
v 0.017333 1.290000 -0.111926
v -0.016000 1.852500 0.000111
v -0.016000 1.477500 -0.111926
v 0.017333 0.040000 0.000111
v -0.016000 1.477500 -0.560074
v -0.016000 1.665000 -0.111926
v -0.016000 0.040000 -0.672111
v 0.017333 0.040000 -0.672111
v -0.016000 1.665000 -0.560074
v -0.016000 2.040000 -0.672111
v -0.016000 2.040000 0.000111
v 0.017333 2.040000 -0.672111
v 0.017333 2.040000 0.000111
v 0.017333 1.477500 -0.576092
v 0.017333 1.852500 -0.576092
v -0.016000 2.040000 -0.576092
v 0.017333 2.040000 -0.576092
v -0.016000 1.852500 -0.576092
v 0.017333 1.290000 -0.576092
v 0.017333 0.040000 -0.576092
v -0.016000 0.040000 -0.576092
v -0.016000 1.290000 -0.576092
v -0.016000 1.665000 -0.576092
v -0.016000 1.477500 -0.576092
v 0.017333 1.665000 -0.576092
v 0.017333 1.852500 -0.095907
v 0.017333 1.477500 -0.095907
v -0.016000 1.665000 -0.095907
v -0.016000 1.477500 -0.095907
v 0.017333 1.665000 -0.095907
v -0.016000 1.290000 -0.095907
v -0.016000 0.040000 -0.095907
v 0.017333 0.040000 -0.095907
v 0.017333 1.290000 -0.095907
v -0.016000 1.852500 -0.095907
v -0.016000 2.040000 -0.095907
v 0.017333 2.040000 -0.095907
v 0.017333 1.866250 -0.111926
v 0.017333 1.866250 -0.560074
v 0.017333 1.866250 -0.672111
v -0.016000 1.866250 -0.560074
v -0.016000 1.866250 0.000111
v -0.016000 1.866250 -0.111926
v 0.017333 1.866250 0.000111
v -0.016000 1.866250 -0.672111
v -0.016000 1.866250 -0.576092
v 0.017333 1.866250 -0.576092
v 0.017333 1.866250 -0.095907
v -0.016000 1.866250 -0.095907
v -0.016000 1.463750 -0.672111
v 0.017333 1.463750 -0.111926
v 0.017333 1.463750 0.000111
v -0.016000 1.463750 -0.111926
v 0.017333 1.463750 -0.560074
v -0.016000 1.463750 -0.560074
v -0.016000 1.463750 0.000111
v 0.017333 1.463750 -0.672111
v -0.016000 1.463750 -0.576092
v 0.017333 1.463750 -0.576092
v -0.016000 1.463750 -0.095907
v 0.017333 1.463750 -0.095907
v -0.020000 1.477500 -0.560074
v -0.020000 1.665000 -0.560074
v -0.020000 1.477500 -0.111926
v -0.020000 1.665000 -0.111926
v -0.020000 1.852500 -0.560074
v -0.020000 1.463750 -0.111926
v -0.020000 1.852500 -0.111926
v -0.020000 1.852500 -0.576092
v -0.020000 1.665000 -0.576092
v -0.020000 1.477500 -0.576092
v -0.020000 1.463750 -0.560074
v -0.020000 1.463750 -0.576092
v -0.020000 1.665000 -0.095907
v -0.020000 1.477500 -0.095907
v -0.020000 1.852500 -0.095907
v -0.020000 1.463750 -0.095907
v -0.020000 1.866250 -0.560074
v -0.020000 1.866250 -0.111926
v -0.020000 1.866250 -0.576092
v -0.020000 1.866250 -0.095907
v 0.021333 1.852500 -0.111926
v 0.021333 1.852500 -0.560074
v 0.021333 1.852500 -0.095907
v 0.021333 1.463750 -0.111926
v 0.021333 1.477500 -0.111926
v 0.021333 1.477500 -0.095907
v 0.021333 1.665000 -0.111926
v 0.021333 1.477500 -0.560074
v 0.021333 1.665000 -0.560074
v 0.021333 1.665000 -0.095907
v 0.021333 1.463750 -0.560074
v 0.021333 1.477500 -0.576092
v 0.021333 1.852500 -0.576092
v 0.021333 1.665000 -0.576092
v 0.021333 1.463750 -0.576092
v 0.021333 1.463750 -0.095907
v 0.021333 1.866250 -0.111926
v 0.021333 1.866250 -0.560074
v 0.021333 1.866250 -0.576092
v 0.021333 1.866250 -0.095907
v 0.017333 1.023333 -0.111926
v 0.017333 1.106667 -0.111926
v -0.016000 1.023333 -0.560074
v -0.016000 1.106667 -0.560074
v -0.016000 1.023333 -0.111926
v -0.016000 1.106667 -0.111926
v 0.017333 1.023333 0.000111
v 0.017333 1.106667 0.000111
v -0.016000 1.023333 -0.672111
v -0.016000 1.106667 -0.672111
v 0.017333 1.023333 -0.560074
v 0.017333 1.106667 -0.560074
v 0.017333 1.106667 -0.672111
v 0.017333 1.023333 -0.672111
v -0.016000 1.106667 0.000111
v -0.016000 1.023333 0.000111
v 0.017333 1.023333 -0.576092
v 0.017333 1.106667 -0.576092
v -0.016000 1.023333 -0.576092
v -0.016000 1.106667 -0.576092
v 0.017333 1.023333 -0.095907
v 0.017333 1.106667 -0.095907
v -0.016000 1.023333 -0.095907
v -0.016000 1.106667 -0.095907
v -0.012000 1.023333 -0.560074
v -0.012000 1.106667 -0.560074
v -0.012000 1.023333 -0.576092
v -0.012000 1.106667 -0.576092
v 0.017333 1.118333 -0.111926
v -0.016000 1.118333 -0.560074
v -0.016000 1.118333 -0.111926
v 0.017333 1.118333 0.000111
v -0.016000 1.118333 -0.672111
v 0.017333 1.118333 -0.560074
v 0.017333 1.118333 -0.576092
v -0.016000 1.118333 -0.576092
v 0.017333 1.118333 -0.095907
v -0.016000 1.118333 -0.095907
v 0.017333 1.118333 -0.672111
v -0.016000 1.118333 0.000111
v 0.017333 1.011667 -0.672111
v -0.016000 1.011667 0.000111
v 0.017333 1.011667 -0.111926
v -0.016000 1.011667 -0.560074
v -0.016000 1.011667 -0.111926
v 0.017333 1.011667 0.000111
v -0.016000 1.011667 -0.672111
v 0.017333 1.011667 -0.560074
v 0.017333 1.011667 -0.576092
v -0.016000 1.011667 -0.576092
v 0.017333 1.011667 -0.095907
v -0.016000 1.011667 -0.095907
v -0.040000 1.011667 -0.560074
v -0.040000 1.023333 -0.560074
v -0.040000 1.011667 -0.576092
v -0.040000 1.023333 -0.576092
v -0.040000 1.106667 -0.576092
v -0.040000 1.106667 -0.560074
v -0.040000 1.118333 -0.560074
v -0.040000 1.118333 -0.576092
v -0.060000 1.011667 -0.560074
v -0.060000 1.023333 -0.560074
v -0.060000 1.011667 -0.576092
v -0.060000 1.023333 -0.576092
v -0.060000 1.106667 -0.576092
v -0.060000 1.106667 -0.560074
v -0.060000 1.118333 -0.560074
v -0.060000 1.118333 -0.576092
v 0.017333 1.528425 -0.560074
v 0.017333 1.528425 -0.111926
v -0.016000 1.517500 -0.111926
v -0.016000 1.517500 -0.560074
v 0.017333 1.537500 -0.111926
v 0.017333 1.537500 -0.560074
v 0.017333 1.568425 -0.560074
v 0.017333 1.568425 -0.111926
v -0.016000 1.557500 -0.111926
v -0.016000 1.557500 -0.560074
v 0.017333 1.577500 -0.111926
v 0.017333 1.577500 -0.560074
v 0.017333 1.608425 -0.560074
v 0.017333 1.608425 -0.111926
v -0.016000 1.597500 -0.111926
v -0.016000 1.597500 -0.560074
v 0.017333 1.617500 -0.111926
v 0.017333 1.617500 -0.560074
v 0.017333 1.648425 -0.560074
v 0.017333 1.648425 -0.111926
v -0.016000 1.637500 -0.111926
v -0.016000 1.637500 -0.560074
v 0.017333 1.657500 -0.111926
v 0.017333 1.657500 -0.560074
v 0.017333 1.688425 -0.560074
v 0.017333 1.688425 -0.111926
v -0.016000 1.677500 -0.111926
v -0.016000 1.677500 -0.560074
v 0.017333 1.697500 -0.111926
v 0.017333 1.697500 -0.560074
v 0.017333 1.728425 -0.560074
v 0.017333 1.728425 -0.111926
v -0.016000 1.717500 -0.111926
v -0.016000 1.717500 -0.560074
v 0.017333 1.737500 -0.111926
v 0.017333 1.737500 -0.560074
v 0.017333 1.768425 -0.560074
v 0.017333 1.768425 -0.111926
v -0.016000 1.757500 -0.111926
v -0.016000 1.757500 -0.560074
v 0.017333 1.777500 -0.111926
v 0.017333 1.777500 -0.560074
v 0.017333 1.808425 -0.560074
v 0.017333 1.808425 -0.111926
v -0.016000 1.797500 -0.111926
v -0.016000 1.797500 -0.560074
v 0.017333 1.817500 -0.111926
v 0.017333 1.817500 -0.560074
vn 1.0000 -0.0000 -0.0000
vn -0.0000 -0.0000 1.0000
vn -1.0000 -0.0000 -0.0000
vn -0.0000 -1.0000 -0.0000
vn -0.0000 1.0000 -0.0000
vn -0.0000 -0.0000 -1.0000
vn -0.5145 0.8575 -0.0000
vn 0.3114 -0.9503 -0.0000
vt 0.135417 0.599537
vt 0.135417 0.599537
vt 0.135417 0.650463
vt 0.135417 0.652283
vt 0.135417 0.663194
vt 0.125000 0.663194
vt 0.125000 0.652283
vt 0.125000 0.650463
vt 0.125000 0.650463
vt 0.135417 0.652283
vt 0.135417 0.663194
vt 0.125000 0.599537
vt 0.125000 0.597717
vt 0.125000 0.586806
vt 0.135417 0.586806
vt 0.135417 0.597717
vt 0.125000 0.586806
vt 0.125000 0.599537
vt 0.125000 0.650463
vt 0.125000 0.597717
vt 0.135417 0.597717
vt 0.125000 0.663194
vt 0.125000 0.663194
vt 0.135417 0.652283
vt 0.135417 0.586806
vt 0.135417 0.586806
vt 0.135417 0.597717
vt 0.135417 0.663194
s 0
f 170/1/1 35/2/1 36/3/1 165/3/1
f 65/4/2 126/4/2 119/4/2 61/4/2
f 1/5/2 34/5/2 37/6/2 31/6/2
f 174/7/3 66/7/3 30/8/3 167/8/3
f 96/4/1 62/4/1 3/5/1 87/5/1
f 67/7/4 25/9/4 23/3/4 68/10/4
f 173/10/1 69/4/1 18/5/1 168/11/1
f 167/8/3 30/8/3 33/12/3 166/12/3
f 19/2/2 125/2/2 118/2/2 2/2/2
f 59/13/3 58/13/3 28/14/3 32/14/3
f 56/13/4 42/14/4 43/15/4 55/16/4
f 82/16/1 52/16/1 7/2/1 74/2/1
f 95/7/4 112/7/4 102/8/4 88/8/4
f 2/2/4 118/2/4 117/3/4 4/3/4
f 81/13/5 115/13/5 113/12/5 76/12/5
f 172/13/3 57/13/3 16/14/3 169/17/3
f 11/18/5 10/19/5 5/3/5 7/2/5
f 28/14/6 27/14/6 21/15/6 9/15/6
f 51/20/5 11/18/5 7/2/5 52/16/5
f 169/17/6 16/14/6 17/15/6 175/15/6
f 78/8/3 10/19/3 11/18/3 76/12/3
f 84/7/3 71/7/3 10/19/3 78/8/3
f 65/4/1 61/4/1 34/5/1 1/5/1
f 32/14/6 28/14/6 9/15/6 8/15/6
f 83/4/1 72/4/1 48/5/1 79/5/1
f 41/8/6 100/8/6 103/8/6 13/8/6
f 4/3/6 20/3/6 12/3/6 38/8/6 41/8/6 13/8/6
f 3/5/2 1/5/2 31/6/2 22/6/2
f 58/13/3 53/13/3 27/14/3 28/14/3
f 85/14/6 32/14/6 8/15/6 92/15/6
f 6/2/5 40/12/5 38/8/5 12/3/5
f 171/21/1 54/16/1 35/2/1 170/1/1
f 60/16/6 130/16/6 128/16/6 49/16/6
f 38/8/6 99/8/6 100/8/6 41/8/6
f 74/2/1 7/2/1 5/3/1 73/3/1
f 62/4/1 65/4/1 1/5/1 3/5/1
f 25/9/4 26/12/4 24/2/4 23/3/4
f 93/13/3 59/13/3 32/14/3 85/14/3
f 87/5/2 3/5/2 22/6/2 91/22/2
f 168/11/2 18/5/2 15/6/2 176/22/2
f 71/7/5 46/6/5 48/5/5 72/4/5
f 81/13/3 51/20/3 45/14/3 80/14/3
f 80/14/6 45/14/6 47/15/6 75/15/6
f 79/5/2 48/5/2 46/6/2 77/22/2
f 4/3/4 13/8/4 14/12/4 2/2/4
f 44/12/2 40/12/2 6/2/2 19/2/2 2/2/2 14/12/2
f 76/12/3 11/18/3 51/20/3 81/13/3
f 76/12/5 113/12/5 114/8/5 78/8/5
f 175/15/1 17/15/1 54/16/1 171/21/1
f 88/8/4 102/8/4 107/12/4 90/12/4
f 45/14/5 51/20/5 52/16/5 47/15/5
f 166/12/3 33/12/3 57/13/3 172/13/3
f 8/15/1 9/15/1 60/16/1 49/16/1
f 75/15/1 47/15/1 52/16/1 82/16/1
f 26/12/4 56/13/4 55/16/4 24/2/4
f 44/12/2 98/12/2 97/12/2 40/12/2
f 9/15/1 21/15/1 50/16/1 60/16/1
f 92/15/1 8/15/1 49/16/1 94/16/1
f 10/19/5 71/7/5 72/4/5 5/3/5
f 6/2/2 124/2/2 125/2/2 19/2/2
f 22/6/3 31/6/3 63/7/3 64/7/3
f 31/6/3 37/6/3 70/7/3 63/7/3
f 73/3/1 5/3/1 72/4/1 83/4/1
f 86/3/4 120/3/4 132/4/4 96/4/4
f 77/22/3 46/6/3 71/7/3 84/7/3
f 91/22/3 22/6/3 64/7/3 95/7/3
f 165/3/1 36/3/1 69/4/1 173/10/1
f 29/6/4 67/7/4 68/10/4 39/5/4
f 83/4/5 136/4/5 133/3/5 73/3/5
f 176/22/3 15/6/3 66/7/3 174/7/3
f 37/6/3 77/22/3 84/7/3 70/7/3
f 96/4/2 132/4/2 122/4/2 62/4/2
f 21/15/1 75/15/1 82/16/1 50/16/1
f 78/8/5 114/8/5 116/7/5 84/7/5
f 34/5/2 79/5/2 77/22/2 37/6/2
f 27/14/6 80/14/6 75/15/6 21/15/6
f 53/13/3 81/13/3 80/14/3 27/14/3
f 89/2/4 127/2/4 120/3/4 86/3/4
f 61/4/1 83/4/1 79/5/1 34/5/1
f 70/7/2 111/7/2 109/7/2 63/7/2
f 63/7/2 109/7/2 110/7/2 64/7/2
f 49/16/6 128/16/6 131/16/6 94/16/6
f 36/3/1 86/3/1 96/4/1 69/4/1
f 15/6/3 91/22/3 95/7/3 66/7/3
f 17/15/1 92/15/1 94/16/1 54/16/1
f 33/12/3 90/12/3 93/13/3 57/13/3
f 18/5/2 87/5/2 91/22/2 15/6/2
f 57/13/3 93/13/3 85/14/3 16/14/3
f 35/2/1 89/2/1 86/3/1 36/3/1
f 16/14/6 85/14/6 92/15/6 17/15/6
f 30/8/3 88/8/3 90/12/3 33/12/3
f 66/7/3 95/7/3 88/8/3 30/8/3
f 69/4/1 96/4/1 87/5/1 18/5/1
f 54/16/1 94/16/1 89/2/1 35/2/1
f 112/7/3 110/7/3 99/8/3 102/8/3
f 102/8/3 99/8/3 97/12/3 107/12/3
f 109/7/3 111/7/3 103/8/3 100/8/3
f 110/7/3 109/7/3 100/8/3 99/8/3
f 107/12/3 97/12/3 106/13/3 108/13/3
f 98/12/3 101/12/3 104/13/3 105/13/3
f 97/12/3 98/12/3 105/13/3 106/13/3
f 101/12/3 113/12/3 115/13/3 104/13/3
f 111/7/3 116/7/3 114/8/3 103/8/3
f 103/8/3 114/8/3 113/12/3 101/12/3
f 53/13/6 104/13/6 115/13/6 81/13/6
f 13/8/4 103/8/4 101/12/4 14/12/4
f 90/12/4 107/12/4 108/13/4 93/13/4
f 93/13/6 108/13/6 106/13/6 59/13/6
f 40/12/5 97/12/5 99/8/5 38/8/5
f 64/7/2 110/7/2 112/7/2 95/7/2
f 59/13/6 106/13/6 105/13/6 58/13/6
f 14/12/2 101/12/2 98/12/2 44/12/2
f 84/7/2 116/7/2 111/7/2 70/7/2
f 58/13/6 105/13/6 104/13/6 53/13/6
f 131/16/1 128/16/1 124/2/1 127/2/1
f 130/16/1 129/16/1 118/2/1 125/2/1
f 128/16/1 130/16/1 125/2/1 124/2/1
f 127/2/1 124/2/1 121/3/1 120/3/1
f 121/3/1 123/3/1 126/4/1 122/4/1
f 123/3/1 117/3/1 119/4/1 126/4/1
f 120/3/1 121/3/1 122/4/1 132/4/1
f 117/3/1 133/3/1 136/4/1 119/4/1
f 118/2/1 134/2/1 133/3/1 117/3/1
f 129/16/1 135/16/1 134/2/1 118/2/1
f 74/2/5 134/2/5 135/16/5 82/16/5
f 82/16/6 135/16/6 129/16/6 50/16/6
f 4/3/6 117/3/6 123/3/6 20/3/6
f 94/16/4 131/16/4 127/2/4 89/2/4
f 61/4/2 119/4/2 136/4/2 83/4/2
f 20/3/6 123/3/6 121/3/6 12/3/6
f 50/16/6 129/16/6 130/16/6 60/16/6
f 62/4/2 122/4/2 126/4/2 65/4/2
f 12/3/5 121/3/5 124/2/5 6/2/5
f 73/3/5 133/3/5 134/2/5 74/2/5
f 178/22/3 152/22/3 159/7/3 188/7/3
f 152/22/3 151/23/3 160/7/3 159/7/3
f 179/3/1 137/3/1 157/24/1 187/24/1
f 137/3/1 138/3/1 158/10/1 157/24/1
f 155/13/5 192/13/5 190/12/5 139/12/5
f 140/12/6 162/12/6 161/12/6 139/12/6
f 177/25/1 150/26/1 153/16/1 185/16/1
f 150/26/1 149/15/1 154/27/1 153/16/1
f 182/28/2 143/28/2 152/22/2 178/22/2
f 143/28/2 144/11/2 151/23/2 152/22/2
f 185/16/1 153/16/1 147/2/1 184/2/1
f 153/16/1 154/27/1 148/1/1 147/2/1
f 183/17/6 145/17/6 150/26/6 177/25/6
f 145/17/6 146/17/6 149/15/6 150/26/6
f 186/13/3 155/13/3 145/17/3 183/17/3
f 155/13/3 156/13/3 146/17/3 145/17/3
f 181/8/3 141/8/3 139/12/3 180/12/3
f 141/8/3 142/8/3 140/12/3 139/12/3
f 187/24/1 157/24/1 143/28/1 182/28/1
f 157/24/1 158/10/1 144/11/1 143/28/1
f 188/7/3 159/7/3 141/8/3 181/8/3
f 159/7/3 160/7/3 142/8/3 141/8/3
f 184/2/1 147/2/1 137/3/1 179/3/1
f 147/2/1 148/1/1 138/3/1 137/3/1
f 161/12/3 162/12/3 164/13/3 163/13/3
f 155/13/2 163/13/2 164/13/2 156/13/2
f 139/12/5 161/12/5 163/13/5 155/13/5
f 156/13/4 164/13/4 162/12/4 140/12/4
f 151/23/3 176/22/3 174/7/3 160/7/3
f 138/3/1 165/3/1 173/10/1 158/10/1
f 156/13/6 193/13/6 196/13/6 172/13/6
f 149/15/1 175/15/1 171/21/1 154/27/1
f 144/11/2 168/11/2 176/22/2 151/23/2
f 154/27/1 171/21/1 170/1/1 148/1/1
f 146/17/6 169/17/6 175/15/6 149/15/6
f 156/13/3 172/13/3 169/17/3 146/17/3
f 142/8/3 167/8/3 166/12/3 140/12/3
f 158/10/1 173/10/1 168/11/1 144/11/1
f 160/7/3 174/7/3 167/8/3 142/8/3
f 148/1/1 170/1/1 165/3/1 138/3/1
f 24/2/1 184/2/1 179/3/1 23/3/1
f 67/7/3 188/7/3 181/8/3 25/9/3
f 68/10/1 187/24/1 182/28/1 39/5/1
f 25/9/3 181/8/3 180/12/3 26/12/3
f 56/13/3 186/13/3 183/17/3 42/14/3
f 42/14/6 183/17/6 177/25/6 43/15/6
f 55/16/1 185/16/1 184/2/1 24/2/1
f 39/5/2 182/28/2 178/22/2 29/6/2
f 43/15/1 177/25/1 185/16/1 55/16/1
f 26/12/3 180/12/3 186/13/3 56/13/3
f 23/3/1 179/3/1 187/24/1 68/10/1
f 29/6/3 178/22/3 188/7/3 67/7/3
f 193/13/6 201/13/6 204/13/6 196/13/6
f 189/12/4 197/12/4 199/13/4 191/13/4
f 172/13/5 196/13/5 195/12/5 166/12/5
f 180/12/4 189/12/4 191/13/4 186/13/4
f 166/12/2 195/12/2 194/12/2 140/12/2
f 139/12/2 190/12/2 189/12/2 180/12/2
f 186/13/6 191/13/6 192/13/6 155/13/6
f 140/12/4 194/12/4 193/13/4 156/13/4
f 197/12/3 198/12/3 200/13/3 199/13/3
f 202/12/3 203/12/3 204/13/3 201/13/3
f 201/13/3 200/13/3 198/12/3 202/12/3
f 191/13/6 199/13/6 200/13/6 192/13/6
f 196/13/5 204/13/5 203/12/5 195/12/5
f 195/12/2 203/12/2 202/12/2 194/12/2
f 193/13/6 192/13/6 200/13/6 201/13/6
f 190/12/2 198/12/2 197/12/2 189/12/2
f 202/12/2 198/12/2 190/12/2 194/12/2
f 194/12/1 190/12/1 192/13/1 193/13/1
f 205/2/1 210/2/1 209/3/1 206/3/1
f 207/8/7 209/3/7 210/2/7 208/12/7
f 208/12/6 210/2/6 205/2/6
f 205/2/8 206/3/8 207/8/8 208/12/8
f 206/3/2 209/3/2 207/8/2
f 211/2/1 216/2/1 215/3/1 212/3/1
f 213/8/7 215/3/7 216/2/7 214/12/7
f 214/12/6 216/2/6 211/2/6
f 211/2/8 212/3/8 213/8/8 214/12/8
f 212/3/2 215/3/2 213/8/2
f 217/2/1 222/2/1 221/3/1 218/3/1
f 219/8/7 221/3/7 222/2/7 220/12/7
f 220/12/6 222/2/6 217/2/6
f 217/2/8 218/3/8 219/8/8 220/12/8
f 218/3/2 221/3/2 219/8/2
f 223/2/1 228/2/1 227/3/1 224/3/1
f 225/8/7 227/3/7 228/2/7 226/12/7
f 226/12/6 228/2/6 223/2/6
f 223/2/8 224/3/8 225/8/8 226/12/8
f 224/3/2 227/3/2 225/8/2
f 229/2/1 234/2/1 233/3/1 230/3/1
f 231/8/7 233/3/7 234/2/7 232/12/7
f 232/12/6 234/2/6 229/2/6
f 229/2/8 230/3/8 231/8/8 232/12/8
f 230/3/2 233/3/2 231/8/2
f 235/2/1 240/2/1 239/3/1 236/3/1
f 237/8/7 239/3/7 240/2/7 238/12/7
f 238/12/6 240/2/6 235/2/6
f 235/2/8 236/3/8 237/8/8 238/12/8
f 236/3/2 239/3/2 237/8/2
f 241/2/1 246/2/1 245/3/1 242/3/1
f 243/8/7 245/3/7 246/2/7 244/12/7
f 244/12/6 246/2/6 241/2/6
f 241/2/8 242/3/8 243/8/8 244/12/8
f 242/3/2 245/3/2 243/8/2
f 247/2/1 252/2/1 251/3/1 248/3/1
f 249/8/7 251/3/7 252/2/7 250/12/7
f 250/12/6 252/2/6 247/2/6
f 247/2/8 248/3/8 249/8/8 250/12/8
f 248/3/2 251/3/2 249/8/2
