# Blender 4.2.3 LTS
# www.blender.org
mtllib LockerDoor.mtl
o Cube.001
v 0.043333 4.162500 0.000278
v 0.043333 4.631250 -1.400185
v 0.043333 3.693750 0.000278
v 0.043333 4.631250 -0.279815
v 0.043333 5.100000 -0.279815
v 0.043333 3.693750 -1.400185
v 0.043333 5.100000 -1.400185
v 0.043333 3.693750 -1.680278
v 0.043333 4.162500 -1.680278
v -0.040000 5.100000 -0.279815
v -0.040000 5.100000 -1.400185
v 0.043333 3.693750 -0.279815
v -0.040000 4.631250 -0.279815
v -0.040000 4.631250 -1.400185
v -0.040000 3.225000 0.000278
v -0.040000 3.225000 -1.680278
v 0.043333 3.225000 -1.680278
v 0.043333 3.225000 0.000278
v 0.043333 4.162500 -1.400185
v 0.043333 4.162500 -0.279815
v 0.043333 4.631250 -1.680278
v -0.040000 3.693750 0.000278
v 0.043333 0.100000 -0.279815
v 0.043333 0.100000 -1.400185
v -0.040000 0.100000 -0.279815
v -0.040000 0.100000 -1.400185
v -0.040000 4.631250 -1.680278
v -0.040000 4.162500 -1.680278
v -0.040000 0.100000 0.000278
v -0.040000 3.225000 -0.279815
v -0.040000 4.162500 0.000278
v -0.040000 3.693750 -1.680278
v -0.040000 3.225000 -1.400185
v 0.043333 4.631250 0.000278
v 0.043333 3.225000 -1.400185
v 0.043333 3.225000 -0.279815
v -0.040000 4.631250 0.000278
v -0.040000 3.693750 -0.279815
v 0.043333 0.100000 0.000278
v -0.040000 3.693750 -1.400185
v -0.040000 4.162500 -0.279815
v -0.040000 0.100000 -1.680278
v 0.043333 0.100000 -1.680278
v -0.040000 4.162500 -1.400185
v -0.040000 5.100000 -1.680278
v -0.040000 5.100000 0.000278
v 0.043333 5.100000 -1.680278
v 0.043333 5.100000 0.000278
v 0.043333 3.693750 -1.440231
v 0.043333 4.631250 -1.440231
v -0.040000 5.100000 -1.440231
v 0.043333 5.100000 -1.440231
v -0.040000 4.631250 -1.440231
v 0.043333 3.225000 -1.440231
v 0.043333 0.100000 -1.440231
v -0.040000 0.100000 -1.440231
v -0.040000 3.225000 -1.440231
v -0.040000 4.162500 -1.440231
v -0.040000 3.693750 -1.440231
v 0.043333 4.162500 -1.440231
v 0.043333 4.631250 -0.239769
v 0.043333 3.693750 -0.239769
v -0.040000 4.162500 -0.239769
v -0.040000 3.693750 -0.239769
v 0.043333 4.162500 -0.239769
v -0.040000 3.225000 -0.239769
v -0.040000 0.100000 -0.239769
v 0.043333 0.100000 -0.239769
v 0.043333 3.225000 -0.239769
v -0.040000 4.631250 -0.239769
v -0.040000 5.100000 -0.239769
v 0.043333 5.100000 -0.239769
v 0.043333 4.665625 -0.279815
v 0.043333 4.665625 -1.400185
v 0.043333 4.665625 -1.680278
v -0.040000 4.665625 -1.400185
v -0.040000 4.665625 0.000278
v -0.040000 4.665625 -0.279815
v 0.043333 4.665625 0.000278
v -0.040000 4.665625 -1.680278
v -0.040000 4.665625 -1.440231
v 0.043333 4.665625 -1.440231
v 0.043333 4.665625 -0.239769
v -0.040000 4.665625 -0.239769
v -0.040000 3.659375 -1.680278
v 0.043333 3.659375 -0.279815
v 0.043333 3.659375 0.000278
v -0.040000 3.659375 -0.279815
v 0.043333 3.659375 -1.400185
v -0.040000 3.659375 -1.400185
v -0.040000 3.659375 0.000278
v 0.043333 3.659375 -1.680278
v -0.040000 3.659375 -1.440231
v 0.043333 3.659375 -1.440231
v -0.040000 3.659375 -0.239769
v 0.043333 3.659375 -0.239769
v -0.050000 3.693750 -1.400185
v -0.050000 4.162500 -1.400185
v -0.050000 3.693750 -0.279815
v -0.050000 4.162500 -0.279815
v -0.050000 4.631250 -1.400185
v -0.050000 3.659375 -0.279815
v -0.050000 4.631250 -0.279815
v -0.050000 4.631250 -1.440231
v -0.050000 4.162500 -1.440231
v -0.050000 3.693750 -1.440231
v -0.050000 3.659375 -1.400185
v -0.050000 3.659375 -1.440231
v -0.050000 4.162500 -0.239769
v -0.050000 3.693750 -0.239769
v -0.050000 4.631250 -0.239769
v -0.050000 3.659375 -0.239769
v -0.050000 4.665625 -1.400185
v -0.050000 4.665625 -0.279815
v -0.050000 4.665625 -1.440231
v -0.050000 4.665625 -0.239769
v 0.053333 4.631250 -0.279815
v 0.053333 4.631250 -1.400185
v 0.053333 4.631250 -0.239769
v 0.053333 3.659375 -0.279815
v 0.053333 3.693750 -0.279815
v 0.053333 3.693750 -0.239769
v 0.053333 4.162500 -0.279815
v 0.053333 3.693750 -1.400185
v 0.053333 4.162500 -1.400185
v 0.053333 4.162500 -0.239769
v 0.053333 3.659375 -1.400185
v 0.053333 3.693750 -1.440231
v 0.053333 4.631250 -1.440231
v 0.053333 4.162500 -1.440231
v 0.053333 3.659375 -1.440231
v 0.053333 3.659375 -0.239769
v 0.053333 4.665625 -0.279815
v 0.053333 4.665625 -1.400185
v 0.053333 4.665625 -1.440231
v 0.053333 4.665625 -0.239769
v 0.043333 2.558333 -0.279815
v 0.043333 2.766667 -0.279815
v -0.040000 2.558333 -1.400185
v -0.040000 2.766667 -1.400185
v -0.040000 2.558333 -0.279815
v -0.040000 2.766667 -0.279815
v 0.043333 2.558333 0.000278
v 0.043333 2.766667 0.000278
v -0.040000 2.558333 -1.680278
v -0.040000 2.766667 -1.680278
v 0.043333 2.558333 -1.400185
v 0.043333 2.766667 -1.400185
v 0.043333 2.766667 -1.680278
v 0.043333 2.558333 -1.680278
v -0.040000 2.766667 0.000278
v -0.040000 2.558333 0.000278
v 0.043333 2.558333 -1.440231
v 0.043333 2.766667 -1.440231
v -0.040000 2.558333 -1.440231
v -0.040000 2.766667 -1.440231
v 0.043333 2.558333 -0.239769
v 0.043333 2.766667 -0.239769
v -0.040000 2.558333 -0.239769
v -0.040000 2.766667 -0.239769
v -0.030000 2.558333 -1.400185
v -0.030000 2.766667 -1.400185
v -0.030000 2.558333 -1.440231
v -0.030000 2.766667 -1.440231
v 0.043333 2.795833 -0.279815
v -0.040000 2.795833 -1.400185
v -0.040000 2.795833 -0.279815
v 0.043333 2.795833 0.000278
v -0.040000 2.795833 -1.680278
v 0.043333 2.795833 -1.400185
v 0.043333 2.795833 -1.440231
v -0.040000 2.795833 -1.440231
v 0.043333 2.795833 -0.239769
v -0.040000 2.795833 -0.239769
v 0.043333 2.795833 -1.680278
v -0.040000 2.795833 0.000278
v 0.043333 2.529167 -1.680278
v -0.040000 2.529167 0.000278
v 0.043333 2.529167 -0.279815
v -0.040000 2.529167 -1.400185
v -0.040000 2.529167 -0.279815
v 0.043333 2.529167 0.000278
v -0.040000 2.529167 -1.680278
v 0.043333 2.529167 -1.400185
v 0.043333 2.529167 -1.440231
v -0.040000 2.529167 -1.440231
v 0.043333 2.529167 -0.239769
v -0.040000 2.529167 -0.239769
v -0.100000 2.529167 -1.400185
v -0.100000 2.558333 -1.400185
v -0.100000 2.529167 -1.440231
v -0.100000 2.558333 -1.440231
v -0.100000 2.766667 -1.440231
v -0.100000 2.766667 -1.400185
v -0.100000 2.795833 -1.400185
v -0.100000 2.795833 -1.440231
v -0.150000 2.529167 -1.400185
v -0.150000 2.558333 -1.400185
v -0.150000 2.529167 -1.440231
v -0.150000 2.558333 -1.440231
v -0.150000 2.766667 -1.440231
v -0.150000 2.766667 -1.400185
v -0.150000 2.795833 -1.400185
v -0.150000 2.795833 -1.440231
vn 1.0000 -0.0000 -0.0000
vn -0.0000 -0.0000 1.0000
vn -1.0000 -0.0000 -0.0000
vn -0.0000 -1.0000 -0.0000
vn -0.0000 1.0000 -0.0000
vn -0.0000 -0.0000 -1.0000
vt 0.135417 0.599537
vt 0.135417 0.599537
vt 0.135417 0.650463
vt 0.135417 0.652283
vt 0.135417 0.663194
vt 0.125000 0.663194
vt 0.125000 0.652283
vt 0.125000 0.650463
vt 0.125000 0.650463
vt 0.135417 0.652283
vt 0.135417 0.663194
vt 0.125000 0.599537
vt 0.125000 0.597717
vt 0.125000 0.586806
vt 0.135417 0.586806
vt 0.135417 0.597717
vt 0.125000 0.586806
vt 0.125000 0.599537
vt 0.125000 0.650463
vt 0.125000 0.597717
vt 0.135417 0.597717
vt 0.125000 0.663194
vt 0.125000 0.663194
vt 0.135417 0.652283
vt 0.135417 0.586806
vt 0.135417 0.586806
vt 0.135417 0.597717
vt 0.135417 0.663194
s 0
f 170/1/1 35/2/1 36/3/1 165/3/1
f 65/4/2 126/4/2 119/4/2 61/4/2
f 1/5/2 34/5/2 37/6/2 31/6/2
f 174/7/3 66/7/3 30/8/3 167/8/3
f 96/4/1 62/4/1 3/5/1 87/5/1
f 67/7/4 25/9/4 23/3/4 68/10/4
f 173/10/1 69/4/1 18/5/1 168/11/1
f 167/8/3 30/8/3 33/12/3 166/12/3
f 19/2/2 125/2/2 118/2/2 2/2/2
f 59/13/3 58/13/3 28/14/3 32/14/3
f 56/13/4 42/14/4 43/15/4 55/16/4
f 82/16/1 52/16/1 7/2/1 74/2/1
f 95/7/4 112/7/4 102/8/4 88/8/4
f 2/2/4 118/2/4 117/3/4 4/3/4
f 81/13/5 115/13/5 113/12/5 76/12/5
f 172/13/3 57/13/3 16/14/3 169/17/3
f 11/18/5 10/19/5 5/3/5 7/2/5
f 28/14/6 27/14/6 21/15/6 9/15/6
f 51/20/5 11/18/5 7/2/5 52/16/5
f 169/17/6 16/14/6 17/15/6 175/15/6
f 78/8/3 10/19/3 11/18/3 76/12/3
f 84/7/3 71/7/3 10/19/3 78/8/3
f 65/4/1 61/4/1 34/5/1 1/5/1
f 32/14/6 28/14/6 9/15/6 8/15/6
f 83/4/1 72/4/1 48/5/1 79/5/1
f 41/8/6 100/8/6 103/8/6 13/8/6
f 4/3/6 20/3/6 12/3/6 38/8/6 41/8/6 13/8/6
f 3/5/2 1/5/2 31/6/2 22/6/2
f 58/13/3 53/13/3 27/14/3 28/14/3
f 85/14/6 32/14/6 8/15/6 92/15/6
f 6/2/5 40/12/5 38/8/5 12/3/5
f 171/21/1 54/16/1 35/2/1 170/1/1
f 60/16/6 130/16/6 128/16/6 49/16/6
f 38/8/6 99/8/6 100/8/6 41/8/6
f 74/2/1 7/2/1 5/3/1 73/3/1
f 62/4/1 65/4/1 1/5/1 3/5/1
f 25/9/4 26/12/4 24/2/4 23/3/4
f 93/13/3 59/13/3 32/14/3 85/14/3
f 87/5/2 3/5/2 22/6/2 91/22/2
f 168/11/2 18/5/2 15/6/2 176/22/2
f 71/7/5 46/6/5 48/5/5 72/4/5
f 81/13/3 51/20/3 45/14/3 80/14/3
f 80/14/6 45/14/6 47/15/6 75/15/6
f 79/5/2 48/5/2 46/6/2 77/22/2
f 4/3/4 13/8/4 14/12/4 2/2/4
f 44/12/2 40/12/2 6/2/2 19/2/2 2/2/2 14/12/2
f 76/12/3 11/18/3 51/20/3 81/13/3
f 76/12/5 113/12/5 114/8/5 78/8/5
f 175/15/1 17/15/1 54/16/1 171/21/1
f 88/8/4 102/8/4 107/12/4 90/12/4
f 45/14/5 51/20/5 52/16/5 47/15/5
f 166/12/3 33/12/3 57/13/3 172/13/3
f 8/15/1 9/15/1 60/16/1 49/16/1
f 75/15/1 47/15/1 52/16/1 82/16/1
f 26/12/4 56/13/4 55/16/4 24/2/4
f 44/12/2 98/12/2 97/12/2 40/12/2
f 9/15/1 21/15/1 50/16/1 60/16/1
f 92/15/1 8/15/1 49/16/1 94/16/1
f 10/19/5 71/7/5 72/4/5 5/3/5
f 6/2/2 124/2/2 125/2/2 19/2/2
f 22/6/3 31/6/3 63/7/3 64/7/3
f 31/6/3 37/6/3 70/7/3 63/7/3
f 73/3/1 5/3/1 72/4/1 83/4/1
f 86/3/4 120/3/4 132/4/4 96/4/4
f 77/22/3 46/6/3 71/7/3 84/7/3
f 91/22/3 22/6/3 64/7/3 95/7/3
f 165/3/1 36/3/1 69/4/1 173/10/1
f 29/6/4 67/7/4 68/10/4 39/5/4
f 83/4/5 136/4/5 133/3/5 73/3/5
f 176/22/3 15/6/3 66/7/3 174/7/3
f 37/6/3 77/22/3 84/7/3 70/7/3
f 96/4/2 132/4/2 122/4/2 62/4/2
f 21/15/1 75/15/1 82/16/1 50/16/1
f 78/8/5 114/8/5 116/7/5 84/7/5
f 34/5/2 79/5/2 77/22/2 37/6/2
f 27/14/6 80/14/6 75/15/6 21/15/6
f 53/13/3 81/13/3 80/14/3 27/14/3
f 89/2/4 127/2/4 120/3/4 86/3/4
f 61/4/1 83/4/1 79/5/1 34/5/1
f 70/7/2 111/7/2 109/7/2 63/7/2
f 63/7/2 109/7/2 110/7/2 64/7/2
f 49/16/6 128/16/6 131/16/6 94/16/6
f 36/3/1 86/3/1 96/4/1 69/4/1
f 15/6/3 91/22/3 95/7/3 66/7/3
f 17/15/1 92/15/1 94/16/1 54/16/1
f 33/12/3 90/12/3 93/13/3 57/13/3
f 18/5/2 87/5/2 91/22/2 15/6/2
f 57/13/3 93/13/3 85/14/3 16/14/3
f 35/2/1 89/2/1 86/3/1 36/3/1
f 16/14/6 85/14/6 92/15/6 17/15/6
f 30/8/3 88/8/3 90/12/3 33/12/3
f 66/7/3 95/7/3 88/8/3 30/8/3
f 69/4/1 96/4/1 87/5/1 18/5/1
f 54/16/1 94/16/1 89/2/1 35/2/1
f 112/7/3 110/7/3 99/8/3 102/8/3
f 102/8/3 99/8/3 97/12/3 107/12/3
f 109/7/3 111/7/3 103/8/3 100/8/3
f 110/7/3 109/7/3 100/8/3 99/8/3
f 107/12/3 97/12/3 106/13/3 108/13/3
f 98/12/3 101/12/3 104/13/3 105/13/3
f 97/12/3 98/12/3 105/13/3 106/13/3
f 101/12/3 113/12/3 115/13/3 104/13/3
f 111/7/3 116/7/3 114/8/3 103/8/3
f 103/8/3 114/8/3 113/12/3 101/12/3
f 53/13/6 104/13/6 115/13/6 81/13/6
f 13/8/4 103/8/4 101/12/4 14/12/4
f 90/12/4 107/12/4 108/13/4 93/13/4
f 93/13/6 108/13/6 106/13/6 59/13/6
f 40/12/5 97/12/5 99/8/5 38/8/5
f 64/7/2 110/7/2 112/7/2 95/7/2
f 59/13/6 106/13/6 105/13/6 58/13/6
f 14/12/2 101/12/2 98/12/2 44/12/2
f 84/7/2 116/7/2 111/7/2 70/7/2
f 58/13/6 105/13/6 104/13/6 53/13/6
f 131/16/1 128/16/1 124/2/1 127/2/1
f 130/16/1 129/16/1 118/2/1 125/2/1
f 128/16/1 130/16/1 125/2/1 124/2/1
f 127/2/1 124/2/1 121/3/1 120/3/1
f 121/3/1 123/3/1 126/4/1 122/4/1
f 123/3/1 117/3/1 119/4/1 126/4/1
f 120/3/1 121/3/1 122/4/1 132/4/1
f 117/3/1 133/3/1 136/4/1 119/4/1
f 118/2/1 134/2/1 133/3/1 117/3/1
f 129/16/1 135/16/1 134/2/1 118/2/1
f 74/2/5 134/2/5 135/16/5 82/16/5
f 82/16/6 135/16/6 129/16/6 50/16/6
f 4/3/6 117/3/6 123/3/6 20/3/6
f 94/16/4 131/16/4 127/2/4 89/2/4
f 61/4/2 119/4/2 136/4/2 83/4/2
f 20/3/6 123/3/6 121/3/6 12/3/6
f 50/16/6 129/16/6 130/16/6 60/16/6
f 62/4/2 122/4/2 126/4/2 65/4/2
f 12/3/5 121/3/5 124/2/5 6/2/5
f 73/3/5 133/3/5 134/2/5 74/2/5
f 178/22/3 152/22/3 159/7/3 188/7/3
f 152/22/3 151/23/3 160/7/3 159/7/3
f 179/3/1 137/3/1 157/24/1 187/24/1
f 137/3/1 138/3/1 158/10/1 157/24/1
f 155/13/5 192/13/5 190/12/5 139/12/5
f 140/12/6 162/12/6 161/12/6 139/12/6
f 177/25/1 150/26/1 153/16/1 185/16/1
f 150/26/1 149/15/1 154/27/1 153/16/1
f 182/28/2 143/28/2 152/22/2 178/22/2
f 143/28/2 144/11/2 151/23/2 152/22/2
f 185/16/1 153/16/1 147/2/1 184/2/1
f 153/16/1 154/27/1 148/1/1 147/2/1
f 183/17/6 145/17/6 150/26/6 177/25/6
f 145/17/6 146/17/6 149/15/6 150/26/6
f 186/13/3 155/13/3 145/17/3 183/17/3
f 155/13/3 156/13/3 146/17/3 145/17/3
f 181/8/3 141/8/3 139/12/3 180/12/3
f 141/8/3 142/8/3 140/12/3 139/12/3
f 187/24/1 157/24/1 143/28/1 182/28/1
f 157/24/1 158/10/1 144/11/1 143/28/1
f 188/7/3 159/7/3 141/8/3 181/8/3
f 159/7/3 160/7/3 142/8/3 141/8/3
f 184/2/1 147/2/1 137/3/1 179/3/1
f 147/2/1 148/1/1 138/3/1 137/3/1
f 161/12/3 162/12/3 164/13/3 163/13/3
f 155/13/2 163/13/2 164/13/2 156/13/2
f 139/12/5 161/12/5 163/13/5 155/13/5
f 156/13/4 164/13/4 162/12/4 140/12/4
f 151/23/3 176/22/3 174/7/3 160/7/3
f 138/3/1 165/3/1 173/10/1 158/10/1
f 156/13/6 193/13/6 196/13/6 172/13/6
f 149/15/1 175/15/1 171/21/1 154/27/1
f 144/11/2 168/11/2 176/22/2 151/23/2
f 154/27/1 171/21/1 170/1/1 148/1/1
f 146/17/6 169/17/6 175/15/6 149/15/6
f 156/13/3 172/13/3 169/17/3 146/17/3
f 142/8/3 167/8/3 166/12/3 140/12/3
f 158/10/1 173/10/1 168/11/1 144/11/1
f 160/7/3 174/7/3 167/8/3 142/8/3
f 148/1/1 170/1/1 165/3/1 138/3/1
f 24/2/1 184/2/1 179/3/1 23/3/1
f 67/7/3 188/7/3 181/8/3 25/9/3
f 68/10/1 187/24/1 182/28/1 39/5/1
f 25/9/3 181/8/3 180/12/3 26/12/3
f 56/13/3 186/13/3 183/17/3 42/14/3
f 42/14/6 183/17/6 177/25/6 43/15/6
f 55/16/1 185/16/1 184/2/1 24/2/1
f 39/5/2 182/28/2 178/22/2 29/6/2
f 43/15/1 177/25/1 185/16/1 55/16/1
f 26/12/3 180/12/3 186/13/3 56/13/3
f 23/3/1 179/3/1 187/24/1 68/10/1
f 29/6/3 178/22/3 188/7/3 67/7/3
f 193/13/6 201/13/6 204/13/6 196/13/6
f 189/12/4 197/12/4 199/13/4 191/13/4
f 172/13/5 196/13/5 195/12/5 166/12/5
f 180/12/4 189/12/4 191/13/4 186/13/4
f 166/12/2 195/12/2 194/12/2 140/12/2
f 139/12/2 190/12/2 189/12/2 180/12/2
f 186/13/6 191/13/6 192/13/6 155/13/6
f 140/12/4 194/12/4 193/13/4 156/13/4
f 197/12/3 198/12/3 200/13/3 199/13/3
f 202/12/3 203/12/3 204/13/3 201/13/3
f 201/13/3 200/13/3 198/12/3 202/12/3
f 191/13/6 199/13/6 200/13/6 192/13/6
f 196/13/5 204/13/5 203/12/5 195/12/5
f 195/12/2 203/12/2 202/12/2 194/12/2
f 193/13/6 192/13/6 200/13/6 201/13/6
f 190/12/2 198/12/2 197/12/2 189/12/2
f 202/12/2 198/12/2 190/12/2 194/12/2
f 194/12/1 190/12/1 192/13/1 193/13/1
o Cube.002
v 0.043333 3.821062 -1.400185
v 0.043333 3.821062 -0.279815
v -0.040000 3.793750 -0.279815
v -0.040000 3.793750 -1.400185
v 0.043333 3.843750 -0.279815
v 0.043333 3.843750 -1.400185
vn 1.0000 -0.0000 -0.0000
vn -0.5145 0.8575 -0.0000
vn -0.0000 -0.0000 -1.0000
vn 0.3114 -0.9503 -0.0000
vn -0.0000 -0.0000 1.0000
vt 0.135417 0.599537
vt 0.135417 0.650463
vt 0.125000 0.650463
vt 0.125000 0.599537
s 0
f 205/29/7 210/29/7 209/30/7 206/30/7
f 207/31/8 209/30/8 210/29/8 208/32/8
f 208/32/9 210/29/9 205/29/9
f 205/29/10 206/30/10 207/31/10 208/32/10
f 206/30/11 209/30/11 207/31/11
o Cube.003
v 0.043333 3.921062 -1.400185
v 0.043333 3.921062 -0.279815
v -0.040000 3.893750 -0.279815
v -0.040000 3.893750 -1.400185
v 0.043333 3.943750 -0.279815
v 0.043333 3.943750 -1.400185
vn 1.0000 -0.0000 -0.0000
vn -0.5145 0.8575 -0.0000
vn -0.0000 -0.0000 -1.0000
vn 0.3114 -0.9503 -0.0000
vn -0.0000 -0.0000 1.0000
vt 0.135417 0.599537
vt 0.135417 0.650463
vt 0.125000 0.650463
vt 0.125000 0.599537
s 0
f 211/33/12 216/33/12 215/34/12 212/34/12
f 213/35/13 215/34/13 216/33/13 214/36/13
f 214/36/14 216/33/14 211/33/14
f 211/33/15 212/34/15 213/35/15 214/36/15
f 212/34/16 215/34/16 213/35/16
o Cube.004
v 0.043333 4.021062 -1.400185
v 0.043333 4.021062 -0.279815
v -0.040000 3.993750 -0.279815
v -0.040000 3.993750 -1.400185
v 0.043333 4.043750 -0.279815
v 0.043333 4.043750 -1.400185
vn 1.0000 -0.0000 -0.0000
vn -0.5145 0.8575 -0.0000
vn -0.0000 -0.0000 -1.0000
vn 0.3114 -0.9503 -0.0000
vn -0.0000 -0.0000 1.0000
vt 0.135417 0.599537
vt 0.135417 0.650463
vt 0.125000 0.650463
vt 0.125000 0.599537
s 0
f 217/37/17 222/37/17 221/38/17 218/38/17
f 219/39/18 221/38/18 222/37/18 220/40/18
f 220/40/19 222/37/19 217/37/19
f 217/37/20 218/38/20 219/39/20 220/40/20
f 218/38/21 221/38/21 219/39/21
o Cube.005
v 0.043333 4.121062 -1.400185
v 0.043333 4.121062 -0.279815
v -0.040000 4.093750 -0.279815
v -0.040000 4.093750 -1.400185
v 0.043333 4.143750 -0.279815
v 0.043333 4.143750 -1.400185
vn 1.0000 -0.0000 -0.0000
vn -0.5145 0.8575 -0.0000
vn -0.0000 -0.0000 -1.0000
vn 0.3114 -0.9503 -0.0000
vn -0.0000 -0.0000 1.0000
vt 0.135417 0.599537
vt 0.135417 0.650463
vt 0.125000 0.650463
vt 0.125000 0.599537
s 0
f 223/41/22 228/41/22 227/42/22 224/42/22
f 225/43/23 227/42/23 228/41/23 226/44/23
f 226/44/24 228/41/24 223/41/24
f 223/41/25 224/42/25 225/43/25 226/44/25
f 224/42/26 227/42/26 225/43/26
o Cube.006
v 0.043333 4.221062 -1.400185
v 0.043333 4.221062 -0.279815
v -0.040000 4.193750 -0.279815
v -0.040000 4.193750 -1.400185
v 0.043333 4.243750 -0.279815
v 0.043333 4.243750 -1.400185
vn 1.0000 -0.0000 -0.0000
vn -0.5145 0.8575 -0.0000
vn -0.0000 -0.0000 -1.0000
vn 0.3114 -0.9503 -0.0000
vn -0.0000 -0.0000 1.0000
vt 0.135417 0.599537
vt 0.135417 0.650463
vt 0.125000 0.650463
vt 0.125000 0.599537
s 0
f 229/45/27 234/45/27 233/46/27 230/46/27
f 231/47/28 233/46/28 234/45/28 232/48/28
f 232/48/29 234/45/29 229/45/29
f 229/45/30 230/46/30 231/47/30 232/48/30
f 230/46/31 233/46/31 231/47/31
o Cube.007
v 0.043333 4.321062 -1.400185
v 0.043333 4.321062 -0.279815
v -0.040000 4.293750 -0.279815
v -0.040000 4.293750 -1.400185
v 0.043333 4.343750 -0.279815
v 0.043333 4.343750 -1.400185
vn 1.0000 -0.0000 -0.0000
vn -0.5145 0.8575 -0.0000
vn -0.0000 -0.0000 -1.0000
vn 0.3114 -0.9503 -0.0000
vn -0.0000 -0.0000 1.0000
vt 0.135417 0.599537
vt 0.135417 0.650463
vt 0.125000 0.650463
vt 0.125000 0.599537
s 0
f 235/49/32 240/49/32 239/50/32 236/50/32
f 237/51/33 239/50/33 240/49/33 238/52/33
f 238/52/34 240/49/34 235/49/34
f 235/49/35 236/50/35 237/51/35 238/52/35
f 236/50/36 239/50/36 237/51/36
o Cube.008
v 0.043333 4.421062 -1.400185
v 0.043333 4.421062 -0.279815
v -0.040000 4.393750 -0.279815
v -0.040000 4.393750 -1.400185
v 0.043333 4.443750 -0.279815
v 0.043333 4.443750 -1.400185
vn 1.0000 -0.0000 -0.0000
vn -0.5145 0.8575 -0.0000
vn -0.0000 -0.0000 -1.0000
vn 0.3114 -0.9503 -0.0000
vn -0.0000 -0.0000 1.0000
vt 0.135417 0.599537
vt 0.135417 0.650463
vt 0.125000 0.650463
vt 0.125000 0.599537
s 0
f 241/53/37 246/53/37 245/54/37 242/54/37
f 243/55/38 245/54/38 246/53/38 244/56/38
f 244/56/39 246/53/39 241/53/39
f 241/53/40 242/54/40 243/55/40 244/56/40
f 242/54/41 245/54/41 243/55/41
o Cube.009
v 0.043333 4.521062 -1.400185
v 0.043333 4.521062 -0.279815
v -0.040000 4.493750 -0.279815
v -0.040000 4.493750 -1.400185
v 0.043333 4.543750 -0.279815
v 0.043333 4.543750 -1.400185
vn 1.0000 -0.0000 -0.0000
vn -0.5145 0.8575 -0.0000
vn -0.0000 -0.0000 -1.0000
vn 0.3114 -0.9503 -0.0000
vn -0.0000 -0.0000 1.0000
vt 0.135417 0.599537
vt 0.135417 0.650463
vt 0.125000 0.650463
vt 0.125000 0.599537
s 0
f 247/57/42 252/57/42 251/58/42 248/58/42
f 249/59/43 251/58/43 252/57/43 250/60/43
f 250/60/44 252/57/44 247/57/44
f 247/57/45 248/58/45 249/59/45 250/60/45
f 248/58/46 251/58/46 249/59/46
